<svg xmlns="http://www.w3.org/2000/svg" viewBox="0 0 122 31"><g clip-rule="evenodd" fill-rule="evenodd"><path d="M42.873 20.227c0 .517-.379.942-.918.942-.525 0-.904-.426-.904-.942v-8.985c0-.517.38-.942.919-.942.524 0 .904.426.904.942zM54.651 11.242v8.21c0 1.11-.568 1.734-1.472 1.734h-.072c-.86 0-1.269-.518-1.633-1.278l-1.837-3.725-1.632-3.845.043 3.724.015 4.15c0 .517-.379.943-.918.943-.525 0-.904-.427-.904-.943v-8.21c0-1.018.569-1.733 1.56-1.733h.073c.918 0 1.297.517 1.662 1.277l1.807 3.695 1.545 3.588-.043-3.436-.015-4.15c0-.517.38-.942.919-.942.523-.001.902.424.902.941zM61.955 20.212c0 .517-.379.943-.918.943-.525 0-.904-.427-.904-.943V12.08h-2.26c-.465 0-.844-.365-.844-.897 0-.517.379-.881.845-.881h6.34c.467 0 .846.365.846.897 0 .517-.38.881-.846.881h-2.259zM67.436 19.908v-8.437c0-.79.422-1.231 1.195-1.201h5.248c.466 0 .845.38.845.897s-.379.881-.845.881h-4.636v2.615h4.097c.452 0 .816.35.816.851 0 .502-.364.852-.816.852h-4.097v3.01h4.636c.466 0 .845.38.845.896 0 .518-.379.882-.845.882h-5.292c-.757 0-1.18-.44-1.151-1.246zM84.652 21.2c.51-.274.671-.837.423-1.277l-1.822-3.374c1.502-.305 2.377-1.46 2.377-3.026 0-1.642-.991-3.253-3.368-3.253h-3.455c-.772-.03-1.195.41-1.195 1.2v8.758c0 .516.379.942.904.942.54 0 .918-.425.918-.942l-.014-3.314h1.924l2.026 3.906a.943.943 0 0 0 1.282.38zm-2.347-6.005h-2.887v-3.148h2.872c.962 0 1.502.638 1.502 1.566s-.51 1.582-1.487 1.582zM89.39 20.349c-1.093-1.02-1.589-2.615-1.589-4.622 0-2.022.481-3.603 1.56-4.606.67-.608 1.574-1.019 2.887-1.019 1.151 0 2.04.274 2.711.867.583.486 1.006 1.17 1.254 2.129.13.501-.204 1.003-.758 1.11-.525.09-.947-.259-1.107-.76-.175-.487-.41-.836-.686-1.08-.379-.35-.845-.502-1.458-.502-.656 0-1.225.197-1.648.638-.612.638-.874 1.78-.874 3.223 0 1.43.248 2.57.89 3.208.422.44.976.638 1.617.638.67 0 1.18-.182 1.604-.593.218-.213.408-.486.54-.806.189-.471.583-.82 1.092-.699.51.122.832.638.671 1.14-.263.836-.714 1.505-1.326 1.961-.67.502-1.502.76-2.551.76-1.341 0-2.187-.41-2.83-.987zM102.773 10.102c-3.164 0-4.505 2.22-4.505 5.625 0 3.512 1.327 5.625 4.505 5.625 3.119 0 4.49-2.113 4.49-5.625 0-3.466-1.356-5.625-4.49-5.625zm-.015 1.78c1.735 0 2.639 1.26 2.639 3.845 0 2.584-.919 3.846-2.639 3.846-1.734 0-2.609-1.261-2.609-3.846 0-2.584.903-3.846 2.609-3.846zM121.403 20.212c0 .517-.379.943-.918.943-.525 0-.904-.427-.904-.943v-4.074l.044-3.968-1.269 4.029-1.282 3.968c-.218.699-.671.973-1.239.973-.598 0-1.036-.289-1.269-.988l-1.312-3.952-1.21-3.968.044 3.907v4.074c0 .517-.379.943-.919.943-.525 0-.903-.426-.903-.943V12.08c0-1.125.583-1.779 1.603-1.779.963 0 1.502.532 1.807 1.505l1.341 4.15.817 2.828.831-2.828 1.341-4.15c.307-.973.831-1.505 1.793-1.505 1.021 0 1.589.638 1.589 1.78z"></path></g><path d="M26.337 17.28c0 .272-.104.533-.29.725s-.436.3-.698.3a.971.971 0 0 1-.7-.3 1.045 1.045 0 0 1-.289-.725V8.12c0-.272.104-.533.29-.725a.971.971 0 0 1 .699-.3c.262 0 .513.108.699.3.185.192.29.453.29.725zm-.343 6.347c-.13.136-3.808 3.314-10.55 3.314-6.74 0-10.393-3.161-10.549-3.297a1.038 1.038 0 0 1-.114-1.424.966.966 0 0 1 1.39-.11c.056.043 3.341 2.806 9.266 2.806 5.924 0 9.233-2.78 9.266-2.805a.981.981 0 0 1 1.397.11 1.033 1.033 0 0 1-.098 1.415zM4.544 8.12a1.05 1.05 0 0 1 .329-.711.976.976 0 0 1 .717-.264.973.973 0 0 1 .646.302c.172.18.274.42.285.673v9.143c0 .272-.104.533-.29.725a.97.97 0 0 1-.698.3.97.97 0 0 1-.7-.3 1.045 1.045 0 0 1-.29-.725zm4.96-2.034a1.05 1.05 0 0 1 .33-.711.976.976 0 0 1 .716-.263.973.973 0 0 1 .646.301c.172.18.274.42.286.673v13.559c0 .272-.105.532-.29.725a.971.971 0 0 1-.7.3.972.972 0 0 1-.698-.3 1.045 1.045 0 0 1-.29-.725zm4.985-.508c0-.272.104-.533.29-.725.185-.193.436-.3.698-.3s.514.107.7.3c.185.192.29.453.29.725v14.744c0 .272-.105.533-.29.726-.186.192-.437.3-.7.3s-.513-.108-.699-.3a1.045 1.045 0 0 1-.29-.725zm4.903.508c0-.272.104-.533.29-.725a.971.971 0 0 1 .698-.3c.263 0 .514.108.7.3.185.192.29.453.29.725v13.559c0 .272-.105.532-.29.725a.971.971 0 0 1-.7.3.971.971 0 0 1-.699-.3 1.045 1.045 0 0 1-.29-.725zM26.607.493H4.315a3.577 3.577 0 0 0-1.417.283c-.45.19-.86.47-1.205.824a3.84 3.84 0 0 0-.808 1.24 3.953 3.953 0 0 0-.288 1.467v22.88c.002.503.1 1.002.288 1.466.188.464.463.886.808 1.24.346.354.755.634 1.205.824.45.19.931.286 1.417.283h22.292c.485.003.966-.093 1.415-.282.45-.19.859-.469 1.204-.822a3.84 3.84 0 0 0 .809-1.237c.188-.464.287-.961.29-1.464V4.307c-.002-.503-.1-1.001-.287-1.465a3.841 3.841 0 0 0-.806-1.239A3.686 3.686 0 0 0 28.03.778a3.578 3.578 0 0 0-1.415-.285"></path></svg>